<?xml version="1.0"?>
<svg xmlns="http://www.w3.org/2000/svg" width="600" height="400">
  <path fill="#b22234" d="M0-.00000264h600.00001875v400.0000125H0z"/>
  <path fill="#fff" d="M0 30.76001966h600.00001875v30.7600031H0zm0 61.52005525h600.00001875v30.7600031H0zm0 61.51999126h600.00001875v30.7600031H0zm0 61.52005525h600.00001875v30.7600031H0zm0 61.52005526h600.00001875v30.7600031H0zm0 61.51999126h600.00001875v30.7600031H0z"/>
  <path fill="#3c3b6e" d="M0-.00000264h266.66669633V215.3200041H0z"/>
  <path fill="#fff" d="m22.2104228 8.56583982 2.89338732 8.97185083 9.42661339-.02060654-7.63840075 5.524304 2.93258235 8.95911736-7.61418232-5.557644-7.61417478 5.55764325 2.93257481-8.95911661-7.63840074-5.52430476 9.4266134.02060655zm22.21043212 20.28288682 2.89338733 8.97185083 9.42661339-.02060654-7.63840075 5.52430475 2.93257482 8.95911661-7.61417479-5.55764324-7.61418231 5.55764324 2.93258234-8.95911661-7.63840074-5.52430475 9.4266134.02060654zM66.63193173 8.56583982l2.89338733 8.97185083 9.42661339-.02060654-7.63840075 5.524304 2.93257482 8.95911736-7.61417479-5.557644-7.6141823 5.55764325 2.93258233-8.95911661-7.63840074-5.52430476 9.4266134.02060655zm22.21042762 20.28288682 2.89338807 8.97185083 9.42661264-.02060654-7.63840074 5.52430475 2.93257858 8.95911661-7.61417855-5.55764324-7.6141793 5.55764324 2.93257933-8.95911661-7.63840375-5.52430475 9.42661564.02060654zm22.21042836-20.28288682 2.89338808 8.97185083 9.42661264-.02060654-7.63840075 5.524304 2.93257858 8.95911736-7.61417855-5.557644-7.6141793 5.55764325 2.93257858-8.95911661-7.63839999-5.52430476 9.42661264.02060655zm22.21043904 20.28288682 2.89338732 8.97185083 9.42661294-.02060654-7.6384003 5.52430475 2.93257836 8.95911661-7.61417908-5.55764324-7.6141793 5.55764324 2.93257934-8.95911661-7.6384-5.52430475 9.42661189.02060654zM155.4736536 8.56583982l2.89338733 8.97185083 9.42661264-.02060654-7.63840074 5.524304 2.93257933 8.95911736-7.6141793-5.55764098-7.6141793 5.55764324 2.93257925-8.95911661-7.63840038-5.52430475 9.42661235.02060503Zm22.21042913 20.28288682 2.89338807 8.97185083 9.42661264-.02060654-7.63840074 5.52430475 2.93257858 8.95911661-7.61417855-5.55764324-7.6141793 5.55764324 2.93257933-8.95911661-7.63840075-5.52430475 9.42661264.02060654zM199.8945111 8.56583982l2.89338732 8.97185083 9.42661263-.02060654-7.63839999 5.524304 2.93257858 8.95911736-7.6141793-5.557644-7.6141793 5.55764325 2.93257933-8.95911661-7.63839999-5.52430476 9.42661189.02060655Zm22.2110783 20.28288682 2.89338733 8.97185083 9.4266134-.02060654-7.63840075 5.52430475 2.93257482 8.95911661-7.6141748-5.55764324-7.6141823 5.55764324 2.93258234-8.95911661-7.63840074-5.52430475 9.42661339.02060654zm22.21042461-20.28288682 2.89338733 8.97185083 9.42661339-.02060654-7.63840075 5.524304 2.93258235 8.95911736-7.61418232-5.557644-7.61417478 5.55764325 2.93257481-8.95911661-7.63840074-5.52430476 9.42661339.02060655zM22.2104228 51.60582989l2.89338732 8.97185158 9.42661339-.02060654-7.63840075 5.524304 2.93258235 8.95912037-7.61418232-5.557647-7.61417478 5.557647 2.93257481-8.95912038-7.63840074-5.52430475 9.4266134.02060655zm22.21043212 20.28288983 2.89338733 8.97185384 9.42661339-.0206216-7.63840075 5.52430701 2.93257482 8.9591121-7.61417479-5.55764023-7.61418231 5.55764023 2.93258234-8.9591121-7.63840074-5.524307 9.4266134.02062159zm22.21107681-20.28288983 2.89338733 8.97185158 9.42661339-.02060654-7.63840075 5.524304 2.93257482 8.95912037-7.61417479-5.557647-7.6141823 5.557647 2.93258233-8.95912038-7.63840074-5.52430475 9.4266134.02060655zm22.21042762 20.28288983 2.89338807 8.97185384 9.42661264-.0206216-7.63840074 5.52430701 2.93257858 8.9591121-7.61417855-5.55764023-7.6141793 5.55764023 2.93257933-8.9591121-7.63840375-5.524307 9.42661564.02062159zm22.21043345-20.28288608 2.89338676 8.97186162 9.42661363-.02058667-7.63840024 5.5243095 2.9325761 8.95911495-7.61417625-5.55764284-7.6141837 5.55764284 2.9325793-8.95911495-7.63840345-5.5243095 9.4266211.02058667zm22.21043395 20.28288608 2.89338732 8.97185384 9.42661294-.0206216-7.6384003 5.52430701 2.93257836 8.9591121-7.61417908-5.55764023-7.6141793 5.55764023 2.93257934-8.9591121-7.6384-5.524307 9.42661189.02062159zm22.21042685-20.28288983 2.89338733 8.97185158 9.42661264-.02060654-7.63840074 5.524304 2.93257933 8.95912037-7.6141793-5.55764475-7.6141793 5.55764475 2.93257925-8.95911812-7.63840038-5.52430475 9.42661235.02060504Zm22.21042913 20.28288983 2.89338807 8.97185384 9.42661264-.0206216-7.63840074 5.52430701 2.93257858 8.9591121-7.61417855-5.55764023-7.6141793 5.55764023 2.93257933-8.9591121-7.63840075-5.524307 9.42661264.02062159zm22.21042837-20.28288983 2.89338732 8.97185158 9.42661263-.02060654-7.63839999 5.524304 2.93257858 8.95912037-7.6141793-5.557647-7.6141793 5.557647 2.93257933-8.95912038-7.63839999-5.52430475 9.42661189.02060655zm22.2110783 20.28288983 2.89338733 8.97185384 9.4266134-.0206216-7.63840075 5.52430701 2.93257482 8.9591121-7.6141748-5.55764023-7.6141823 5.55764023 2.93258234-8.9591121-7.63840074-5.524307 9.42661339.02062159zm22.21042461-20.28288983 2.89338733 8.97185158 9.42661339-.02060654-7.63840075 5.524304 2.93258235 8.95912037-7.61418232-5.557647-7.61417478 5.557647 2.93257481-8.95912038-7.63840074-5.52430475 9.42661339.02060655zM22.2104228 94.64582535l2.89338732 8.97185384 9.42661339-.0206216-7.63840075 5.52430701 2.93258235 8.95911963-7.61418232-5.55764776-7.61417478 5.55764776 2.93257481-8.95911963-7.63840074-5.524307 9.4266134.02062159zm22.21043212 20.28289121 2.89338733 8.97185384 9.42661339-.0206216-7.63840075 5.52430701 2.93257482 8.9591121-7.61417479-5.55764024-7.61418231 5.55764024 2.93258234-8.9591121-7.63840074-5.524307 9.4266134.02062159zm22.21107681-20.28289121 2.89338733 8.97185384 9.42661339-.0206216-7.63840075 5.52430701 2.93257482 8.95911963-7.61417479-5.55764776-7.6141823 5.55764776 2.93258233-8.95911963-7.63840074-5.524307 9.4266134.02062159zm22.21042762 20.28289121 2.89338807 8.97185384 9.42661264-.0206216-7.63840074 5.52430701 2.93257858 8.9591121-7.61417855-5.55764024-7.6141793 5.55764024 2.93257933-8.9591121-7.63840375-5.524307 9.42661564.02062159zm22.21042836-20.28289121 2.89338808 8.97185384 9.42661264-.0206216-7.63840075 5.52430701 2.93257858 8.95911963-7.61417855-5.55764776-7.6141793 5.55764776 2.93257858-8.95911963-7.63839999-5.524307 9.42661264.02062159zm22.21043904 20.28289121 2.89338732 8.97185384 9.42661294-.0206216-7.6384003 5.52430701 2.93257836 8.9591121-7.61417908-5.55764024-7.6141793 5.55764024 2.93257934-8.9591121-7.6384-5.524307 9.42661189.02062159zm22.21042685-20.28289121 2.89338733 8.97185384 9.42661264-.0206216-7.63840074 5.52430701 2.93257933 8.95911963-7.6141793-5.55764776-7.6141793 5.55764776 2.93257925-8.95911963-7.63840038-5.524307 9.42661235.02062159zm22.21042913 20.28289121 2.89338807 8.97185384 9.42661264-.0206216-7.63840074 5.52430701 2.93257858 8.9591121-7.61417855-5.55764024-7.6141793 5.55764024 2.93257933-8.9591121-7.63840075-5.524307 9.42661264.02062159zm22.21042837-20.28289121 2.89338732 8.97185384 9.42661263-.0206216-7.63839999 5.52430701 2.93257858 8.95911963-7.6141793-5.55764776-7.6141793 5.55764776 2.93257933-8.95911963-7.63839999-5.524307 9.42661189.02062159zm22.2110783 20.28289121 2.89338733 8.97185384 9.4266134-.0206216-7.63840075 5.52430701 2.93257482 8.9591121-7.6141748-5.55764024-7.6141823 5.55764024 2.93258234-8.9591121-7.63840074-5.524307 9.42661339.02062159zm22.21042461-20.28289121 2.89338733 8.97185384 9.42661339-.0206216-7.63840075 5.52430701 2.93258235 8.95911963-7.61418232-5.55764776-7.61417478 5.55764776 2.93257481-8.95911963-7.63840074-5.524307 9.42661339.02062159zM22.2104228 137.68582972l2.89338732 8.97185384 9.42661339-.0206216-7.63840075 5.524307 2.93258235 8.95911964-7.61418232-5.55764777-7.61417478 5.55764777 2.93257481-8.95911963-7.63840074-5.524307 9.4266134.02062159zm22.21043212 20.28289434 2.89338733 8.97184632 9.42661339-.0206216-7.63840075 5.52429948 2.93257482 8.95911963-7.61417479-5.55764024-7.61418231 5.55764024 2.93258234-8.95911963-7.63840074-5.52429948 9.4266134.0206216zm22.21107681-20.28289434 2.89338733 8.97185384 9.42661339-.0206216-7.63840075 5.524307 2.93257482 8.95911964-7.61417479-5.55764777-7.6141823 5.55764777 2.93258233-8.95911963-7.63840074-5.524307 9.4266134.02062159zm22.21042762 20.28289434 2.89338807 8.97184632 9.42661264-.0206216-7.63840074 5.52429948 2.93257858 8.95911963-7.61417855-5.55764024-7.6141793 5.55764024 2.93257933-8.95911963-7.63840375-5.52429948 9.42661564.0206216zm22.21042836-20.28289434 2.89338808 8.97185384 9.42661264-.0206216-7.63840075 5.524307 2.93257858 8.95911964-7.61417855-5.55764777-7.6141793 5.55764777 2.93257858-8.95911963-7.63839999-5.524307 9.42661264.02062159zm22.21043904 20.28289434 2.89338732 8.97184632 9.42661294-.0206216-7.6384003 5.52429948 2.93257836 8.95911963-7.61417908-5.55764024-7.6141793 5.55764024 2.93257934-8.95911963-7.6384-5.52429948 9.42661189.0206216zm22.21042685-20.28289434 2.89338733 8.97185384 9.42661264-.0206216-7.63840074 5.524307 2.93257933 8.95911964-7.6141793-5.55764777-7.6141793 5.55764777 2.93257925-8.95911963-7.63840038-5.524307 9.42661235.02062159zm22.21042913 20.28289434 2.89338807 8.97184632 9.42661264-.0206216-7.63840074 5.52429948 2.93257858 8.95911963-7.61417855-5.55764024-7.6141793 5.55764024 2.93257933-8.95911963-7.63840075-5.52429948 9.42661264.0206216zm22.21042837-20.28289434 2.89338732 8.97185384 9.42661263-.0206216-7.63839999 5.524307 2.93257858 8.95911964-7.6141793-5.55764777-7.6141793 5.55764777 2.93257933-8.95911963-7.63839999-5.524307 9.42661189.02062159zm22.2110783 20.28289434 2.89338733 8.97184632 9.4266134-.0206216-7.63840075 5.52429948 2.93257482 8.95911963-7.6141748-5.55764024-7.6141823 5.55764024 2.93258234-8.95911963-7.63840074-5.52429948 9.42661339.0206216zm22.21042461-20.28289434 2.89338733 8.97185384 9.42661339-.0206216-7.63840075 5.524307 2.93258235 8.95911964-7.61418232-5.55764777-7.61417478 5.55764777 2.93257481-8.95911963-7.63840074-5.524307 9.42661339.02062159zM22.2104228 180.7258115l2.89338732 8.97185384 9.42661339-.0206216-7.63840075 5.52430702 2.93258235 8.95911962-7.61418232-5.55764776-7.61417478 5.55764024 2.93257481-8.9591121-7.63840074-5.52430701 9.4266134.0206216zm44.42150893 0 2.89338733 8.97185384 9.42661339-.0206216-7.63840075 5.52430702 2.93257482 8.95911962-7.61417479-5.55764776-7.6141823 5.55764024 2.93258233-8.9591121-7.63840074-5.52430701 9.4266134.0206216zm44.42085598 0 2.89338808 8.97185384 9.42661264-.0206216-7.63840075 5.52430702 2.93257858 8.95911962-7.61417855-5.55764776-7.6141793 5.55764024 2.93257858-8.9591121-7.63839999-5.52430701 9.42661264.0206216zm44.42086589 0 2.89338733 8.97185384 9.42661264-.0206216-7.63840074 5.52430702 2.93257933 8.95911962-7.6141793-5.55764776-7.6141793 5.55764024 2.93257925-8.9591121-7.63840038-5.52430701 9.42661235.0206216zm44.4208575 0 2.89338732 8.97185384 9.42661263-.0206216-7.63839999 5.52430702 2.93257858 8.95911962-7.6141793-5.55764776-7.6141793 5.55764024 2.93257933-8.9591121-7.63839999-5.52430701 9.42661189.0206216zm44.42150291 0 2.89338733 8.97185384 9.42661339-.0206216-7.63840075 5.52430702 2.93258235 8.95911962-7.61418232-5.55764776-7.61417478 5.55764024 2.93257481-8.9591121-7.63840074-5.52430701 9.42661339.0206216z"/>
</svg>