<svg width="40" height="40" viewBox="0 0 40 40" fill="none" xmlns="http://www.w3.org/2000/svg">
<circle cx="20" cy="20" r="20" fill="white"/>
<path d="M25.5 14.5H25.51" stroke="black" stroke-width="2" stroke-linecap="round" stroke-linejoin="round"/>
<path d="M24 19.3701C24.1234 20.2023 23.9813 21.0523 23.5938 21.7991C23.2063 22.5459 22.5932 23.1515 21.8416 23.5297C21.0901 23.908 20.2385 24.0397 19.4078 23.906C18.5771 23.7723 17.8098 23.3801 17.2149 22.7852C16.6199 22.1903 16.2277 21.4229 16.0941 20.5923C15.9604 19.7616 16.0921 18.91 16.4703 18.1584C16.8486 17.4069 17.4542 16.7938 18.201 16.4063C18.9478 16.0188 19.7978 15.8766 20.63 16.0001C21.4789 16.1259 22.2649 16.5215 22.8717 17.1284C23.4785 17.7352 23.8741 18.5211 24 19.3701Z" stroke="black" stroke-width="2" stroke-linecap="round" stroke-linejoin="round"/>
<path d="M25 10H15C12.2386 10 10 12.2386 10 15V25C10 27.7614 12.2386 30 15 30H25C27.7614 30 30 27.7614 30 25V15C30 12.2386 27.7614 10 25 10Z" stroke="black" stroke-width="2" stroke-linecap="round" stroke-linejoin="round"/>
</svg>
